# xmcd CD database file
#
# Track frame offsets:
#	150
#	14702
#	38260
#	43232
#	68707
#	86497
#	104537
#	132482
#	150482
#	168207
#	188722
#	196035
#	204455
#	223212
#	244670
#	255630
#	269892
#	287195
#	311482
#	317757
#
# Disc length: 4423 seconds
#
# Revision: 2
# Processed by: cddbd v1.5.1PL0 Copyright (c) Steve Scherf et al.
# Submitted via: CDex 1.51
#
DISCID=25114514
DTITLE=Forro Arriba Saia  - volume 5 (ao vivo)
DYEAR=2004
DGENRE=Forro
TTITLE0=Solta o Pilao
TTITLE1=Caminho da Roça
TTITLE2=Caminho do Amor
TTITLE3=Thimet ,Thimet
TTITLE4=Na Estrada
TTITLE5=Joana
TTITLE6=Sentadoa Beira do Caminho
TTITLE7=Flor da Gabiraba
TTITLE8=Forro do Sapateiro
TTITLE9=Pega na cintura
TTITLE10=Catitu de Festa
TTITLE11=Numa Sala de Beboco
TTITLE12=Aquilo Bom
TTITLE13=Penerou
TTITLE14=Dez Litros de Licor
TTITLE15=Esse Bicho Mata
TTITLE16=Preciso de teu sorriso
TTITLE17=Passa La
TTITLE18=Fuleiragem
TTITLE19=Libera o toim
EXTD=YEAR: 2004
EXTT0=
EXTT1=
EXTT2=
EXTT3=
EXTT4=
EXTT5=
EXTT6=
EXTT7=
EXTT8=
EXTT9=
EXTT10=
EXTT11=
EXTT12=
EXTT13=
EXTT14=
EXTT15=
EXTT16=
EXTT17=
EXTT18=
EXTT19=
PLAYORDER=
